<?xml version="1.0" encoding="utf-8"?>
<!-- Generator: Adobe Illustrator 23.0.3, SVG Export Plug-In . SVG Version: 6.00 Build 0)  -->
<svg version="1.1" id="Layer_1" xmlns="http://www.w3.org/2000/svg" xmlns:xlink="http://www.w3.org/1999/xlink" x="0px" y="0px"
	 viewBox="0 0 515.9 728.5" style="enable-background:new 0 0 515.9 728.5;" xml:space="preserve">
<style type="text/css">
	.st0{fill:#504039;}
</style>
<g>
	<path class="st0" d="M393,326.8c0,82.4-20.5,144.7-61.5,186.9c-41,42.2-101.9,63.5-182.7,63.9l-1.8-46.8c25.2,0,47.9-2.4,68.1-7.2
		c20.2-4.8,37.9-12.5,53.1-23.1c15.2-10.6,27.9-24.3,38.1-41.1c10.2-16.8,17.7-37.4,22.5-61.8c-10.4,4.8-22.2,8.7-35.4,11.7
		s-26.8,4.5-40.8,4.5c-23.6,0-43.6-3.5-60-10.5c-16.4-7-29.8-16.4-40.2-28.2c-10.4-11.8-17.9-25.4-22.5-40.8
		c-4.6-15.4-6.9-31.5-6.9-48.3c0-14.8,2.6-30.2,7.8-46.2c5.2-16,13.1-30.6,23.7-43.8c10.6-13.2,24.1-24,40.5-32.4
		c16.4-8.4,35.8-12.6,58.2-12.6c22.8,0,42.9,4,60.3,12c17.4,8,32,19.6,43.8,34.8C369,213,378,231.5,384,253.3
		C390,275.1,393,299.6,393,326.8z M258.6,368.2c14,0,27.2-1.3,39.6-3.9c12.4-2.6,24.4-6.5,36-11.7c0.4-4.4,0.6-8.7,0.6-12.9
		c0-4.2,0-8.5,0-12.9c0-17.2-1.2-33.7-3.6-49.5c-2.4-15.8-6.7-29.6-12.9-41.4c-6.2-11.8-14.5-21.2-24.9-28.2
		c-10.4-7-23.6-10.5-39.6-10.5c-13.2,0-24.4,2.8-33.6,8.4c-9.2,5.6-16.8,12.7-22.8,21.3c-6,8.6-10.3,18-12.9,28.2
		c-2.6,10.2-3.9,20.1-3.9,29.7c0,27.2,6.5,47.9,19.5,62.1C213,361.1,232.5,368.2,258.6,368.2z"/>
</g>
</svg>
