<?xml version="1.0" encoding="utf-8"?>
<!-- Generator: Adobe Illustrator 23.0.3, SVG Export Plug-In . SVG Version: 6.00 Build 0)  -->
<svg version="1.1" id="Layer_1" xmlns="http://www.w3.org/2000/svg" xmlns:xlink="http://www.w3.org/1999/xlink" x="0px" y="0px"
	 viewBox="0 0 515.9 728.5" style="enable-background:new 0 0 515.9 728.5;" xml:space="preserve">
<style type="text/css">
	.st0{fill:#504039;}
</style>
<g>
	<path class="st0" d="M210.6,312.1c60.4,2.4,104.7,15.6,132.9,39.6s42.3,56.6,42.3,97.8c0,18.4-3.1,35.4-9.3,51
		c-6.2,15.6-15.6,29-28.2,40.2c-12.6,11.2-28.5,20-47.7,26.4c-19.2,6.4-42,9.6-68.4,9.6c-10.4,0-21-0.8-31.8-2.4
		c-10.8-1.6-20.8-3.6-30-6c-9.2-2.4-17.4-4.8-24.6-7.2c-7.2-2.4-12.4-4.4-15.6-6l10.8-48.6c6.8,3.2,17.9,7.4,33.3,12.6
		c15.4,5.2,34.3,7.8,56.7,7.8c18,0,33.1-2,45.3-6c12.2-4,22.1-9.4,29.7-16.2c7.6-6.8,13.1-14.7,16.5-23.7c3.4-9,5.1-18.5,5.1-28.5
		c0-15.2-2.6-28.7-7.8-40.5c-5.2-11.8-14.4-21.7-27.6-29.7c-13.2-8-30.8-14.1-52.8-18.3c-22-4.2-49.8-6.3-83.4-6.3
		c2.4-19.6,4.3-38,5.7-55.2c1.4-17.2,2.7-34,3.9-50.4c1.2-16.4,2.2-32.7,3-48.9c0.8-16.2,1.6-33.3,2.4-51.3h200.4v47.4H219.6
		c-0.4,6-1,14.1-1.8,24.3c-0.8,10.2-1.6,20.8-2.4,31.8c-0.8,11-1.6,21.7-2.4,32.1C212.1,297.9,211.4,306.1,210.6,312.1z"/>
</g>
</svg>
