<?xml version="1.0" encoding="utf-8"?>
<!-- Generator: Adobe Illustrator 23.0.3, SVG Export Plug-In . SVG Version: 6.00 Build 0)  -->
<svg version="1.1" id="Layer_1" xmlns="http://www.w3.org/2000/svg" xmlns:xlink="http://www.w3.org/1999/xlink" x="0px" y="0px"
	 viewBox="0 0 515.9 728.5" style="enable-background:new 0 0 515.9 728.5;" xml:space="preserve">
<style type="text/css">
	.st0{fill:#504039;}
</style>
<g>
	<path class="st0" d="M113.4,428.2c7.6-17.6,18-38.1,31.2-61.5c13.2-23.4,28.1-47.5,44.7-72.3c16.6-24.8,34.4-49.2,53.4-73.2
		c19-24,38.1-45.6,57.3-64.8h53.4v264h49.2V466h-49.2v106.2h-54V466h-186V428.2z M299.4,222.4c-12,12.8-24.1,27.1-36.3,42.9
		c-12.2,15.8-24.1,32.3-35.7,49.5c-11.6,17.2-22.5,34.8-32.7,52.8s-19.3,35.6-27.3,52.8h132V222.4z"/>
</g>
</svg>
