<?xml version="1.0" encoding="utf-8"?>
<!-- Generator: Adobe Illustrator 23.0.3, SVG Export Plug-In . SVG Version: 6.00 Build 0)  -->
<svg version="1.1" id="Layer_1" xmlns="http://www.w3.org/2000/svg" xmlns:xlink="http://www.w3.org/1999/xlink" x="0px" y="0px"
	 viewBox="0 0 515.9 728.5" style="enable-background:new 0 0 515.9 728.5;" xml:space="preserve">
<style type="text/css">
	.st0{fill:#504039;}
</style>
<g>
	<path class="st0" d="M230.4,531.7c35.6,0,61.1-7,76.5-21c15.4-14,23.1-32.8,23.1-56.4c0-15.2-3.2-28-9.6-38.4
		c-6.4-10.4-14.8-18.7-25.2-24.9c-10.4-6.2-22.5-10.6-36.3-13.2c-13.8-2.6-27.9-3.9-42.3-3.9h-14.4v-45.6H222c10,0,20.3-1,30.9-3
		c10.6-2,20.3-5.6,29.1-10.8c8.8-5.2,16-12.3,21.6-21.3c5.6-9,8.4-20.3,8.4-33.9c0-11.2-2-20.8-6-28.8c-4-8-9.3-14.6-15.9-19.8
		c-6.6-5.2-14.2-8.9-22.8-11.1c-8.6-2.2-17.7-3.3-27.3-3.3c-19.2,0-35.5,2.8-48.9,8.4c-13.4,5.6-24.7,11.4-33.9,17.4l-21.6-42.6
		c4.8-3.2,10.9-6.7,18.3-10.5c7.4-3.8,15.7-7.3,24.9-10.5c9.2-3.2,19.1-5.9,29.7-8.1c10.6-2.2,21.7-3.3,33.3-3.3c22,0,41,2.7,57,8.1
		c16,5.4,29.2,13,39.6,22.8c10.4,9.8,18.2,21.4,23.4,34.8c5.2,13.4,7.8,27.9,7.8,43.5c0,21.6-6.2,40.1-18.6,55.5
		c-12.4,15.4-27.4,27.1-45,35.1c10.8,3.2,21.2,7.8,31.2,13.8c10,6,18.7,13.6,26.1,22.8c7.4,9.2,13.4,19.8,18,31.8
		c4.6,12,6.9,25.4,6.9,40.2c0,18-3.1,34.7-9.3,50.1c-6.2,15.4-15.8,28.7-28.8,39.9c-13,11.2-29.3,20-48.9,26.4
		c-19.6,6.4-42.8,9.6-69.6,9.6c-10.4,0-21.1-0.8-32.1-2.4c-11-1.6-21.3-3.6-30.9-6c-9.6-2.4-18-4.8-25.2-7.2
		c-7.2-2.4-12.4-4.4-15.6-6l10.8-48.6c6.8,3.2,18.1,7.4,33.9,12.6C188.2,529.1,207.6,531.7,230.4,531.7z"/>
</g>
</svg>
