<?xml version="1.0" encoding="utf-8"?>
<!-- Generator: Adobe Illustrator 23.0.3, SVG Export Plug-In . SVG Version: 6.00 Build 0)  -->
<svg version="1.1" id="Layer_1" xmlns="http://www.w3.org/2000/svg" xmlns:xlink="http://www.w3.org/1999/xlink" x="0px" y="0px"
	 viewBox="0 0 515.9 728.5" style="enable-background:new 0 0 515.9 728.5;" xml:space="preserve">
<style type="text/css">
	.st0{fill:#504039;}
</style>
<g>
	<path class="st0" d="M374.4,267.4c0,14.4-2.9,28.3-8.7,41.7c-5.8,13.4-13.5,26.6-23.1,39.6c-9.6,13-20.4,25.8-32.4,38.4
		c-12,12.6-24,24.9-36,36.9c-6.8,6.8-14.7,14.8-23.7,24c-9,9.2-17.5,18.8-25.5,28.8c-8,10-14.7,19.6-20.1,28.8
		c-5.4,9.2-8.1,17.2-8.1,24h191.4V577h-252c-0.4-2.4-0.6-4.8-0.6-7.2c0-2.4,0-4.6,0-6.6c0-18.8,3.1-36.3,9.3-52.5
		c6.2-16.2,14.3-31.5,24.3-45.9c10-14.4,21.2-28,33.6-40.8c12.4-12.8,24.6-25.2,36.6-37.2c10-9.6,19.5-19.1,28.5-28.5
		c9-9.4,17-18.8,24-28.2c7-9.4,12.6-19.1,16.8-29.1c4.2-10,6.3-20.6,6.3-31.8c0-12-1.9-22.2-5.7-30.6c-3.8-8.4-8.9-15.4-15.3-21
		c-6.4-5.6-13.9-9.7-22.5-12.3c-8.6-2.6-17.7-3.9-27.3-3.9c-11.6,0-22.2,1.6-31.8,4.8c-9.6,3.2-18.2,6.9-25.8,11.1
		c-7.6,4.2-14,8.6-19.2,13.2c-5.2,4.6-9.2,8.1-12,10.5l-27.6-39.6c3.6-4,9-8.9,16.2-14.7c7.2-5.8,15.8-11.3,25.8-16.5
		c10-5.2,21.2-9.6,33.6-13.2c12.4-3.6,25.8-5.4,40.2-5.4c43.6,0,76.3,10.1,98.1,30.3C363.4,202.1,374.4,230.6,374.4,267.4z"/>
</g>
</svg>
