<?xml version="1.0" encoding="utf-8"?>
<!-- Generator: Adobe Illustrator 23.0.3, SVG Export Plug-In . SVG Version: 6.00 Build 0)  -->
<svg version="1.1" id="Layer_1" xmlns="http://www.w3.org/2000/svg" xmlns:xlink="http://www.w3.org/1999/xlink" x="0px" y="0px"
	 viewBox="0 0 515.9 728.5" style="enable-background:new 0 0 515.9 728.5;" xml:space="preserve">
<style type="text/css">
	.st0{fill:#504039;}
</style>
<g>
	<path class="st0" d="M118.8,364.3c0-69.6,12.3-123.2,36.9-160.8c24.6-37.6,58.7-56.4,102.3-56.4c43.6,0,77.7,18.8,102.3,56.4
		c24.6,37.6,36.9,91.2,36.9,160.8c0,69.6-12.3,123.2-36.9,160.8c-24.6,37.6-58.7,56.4-102.3,56.4c-43.6,0-77.7-18.8-102.3-56.4
		C131.1,487.5,118.8,433.9,118.8,364.3z M338.4,364.3c0-22.8-1.3-44.4-3.9-64.8c-2.6-20.4-7-38.2-13.2-53.4
		c-6.2-15.2-14.5-27.3-24.9-36.3c-10.4-9-23.2-13.5-38.4-13.5c-15.2,0-28,4.5-38.4,13.5c-10.4,9-18.7,21.1-24.9,36.3
		c-6.2,15.2-10.6,33-13.2,53.4c-2.6,20.4-3.9,42-3.9,64.8c0,22.8,1.3,44.4,3.9,64.8c2.6,20.4,7,38.2,13.2,53.4
		c6.2,15.2,14.5,27.3,24.9,36.3c10.4,9,23.2,13.5,38.4,13.5c15.2,0,28-4.5,38.4-13.5c10.4-9,18.7-21.1,24.9-36.3
		c6.2-15.2,10.6-33,13.2-53.4C337,408.7,338.4,387.1,338.4,364.3z"/>
</g>
</svg>
