<?xml version="1.0" encoding="utf-8"?>
<!-- Generator: Adobe Illustrator 23.0.3, SVG Export Plug-In . SVG Version: 6.00 Build 0)  -->
<svg version="1.1" id="Layer_1" xmlns="http://www.w3.org/2000/svg" xmlns:xlink="http://www.w3.org/1999/xlink" x="0px" y="0px"
	 viewBox="0 0 515.9 728.5" style="enable-background:new 0 0 515.9 728.5;" xml:space="preserve">
<style type="text/css">
	.st0{fill:#504039;}
</style>
<g>
	<path class="st0" d="M394.2,464.5c0,16.8-2.9,32.3-8.7,46.5c-5.8,14.2-14.4,26.6-25.8,37.2c-11.4,10.6-25.7,18.8-42.9,24.6
		c-17.2,5.8-37,8.7-59.4,8.7c-26,0-47.7-3.7-65.1-11.1c-17.4-7.4-31.3-16.7-41.7-27.9c-10.4-11.2-17.8-23.5-22.2-36.9
		c-4.4-13.4-6.6-26.1-6.6-38.1c0-11.6,1.9-22.7,5.7-33.3c3.8-10.6,8.8-20.5,15-29.7c6.2-9.2,13.4-17.5,21.6-24.9
		c8.2-7.4,16.9-13.9,26.1-19.5c-39.2-22.4-58.8-55.4-58.8-99c0-15.2,3-29.7,9-43.5c6-13.8,14.5-25.9,25.5-36.3
		c11-10.4,24.3-18.7,39.9-24.9c15.6-6.2,33-9.3,52.2-9.3c22.4,0,41.6,3.4,57.6,10.2c16,6.8,29.1,15.5,39.3,26.1
		c10.2,10.6,17.6,22.3,22.2,35.1c4.6,12.8,6.9,25.2,6.9,37.2c0,11.6-1.7,22.5-5.1,32.7c-3.4,10.2-8,19.7-13.8,28.5
		c-5.8,8.8-12.4,16.6-19.8,23.4c-7.4,6.8-15.1,12.8-23.1,18C369.3,380.7,393.3,416.1,394.2,464.5z M178.2,468.1
		c0,7.2,1.3,14.7,3.9,22.5c2.6,7.8,7.1,15,13.5,21.6c6.4,6.6,14.6,12.1,24.6,16.5c10,4.4,22.6,6.6,37.8,6.6c13.6,0,25.5-2,35.7-6
		c10.2-4,18.5-9.1,24.9-15.3c6.4-6.2,11.2-13.3,14.4-21.3c3.2-8,4.8-16.2,4.8-24.6c0-12.8-2.4-24-7.2-33.6
		c-4.8-9.6-11.7-18-20.7-25.2c-9-7.2-19.8-13.3-32.4-18.3c-12.6-5-26.9-9.3-42.9-12.9c-18,10-31.9,22.4-41.7,37.2
		C183,430.1,178.2,447.7,178.2,468.1z M328.2,255.1c0-6-1.3-12.6-3.9-19.8c-2.6-7.2-6.7-13.9-12.3-20.1
		c-5.6-6.2-12.8-11.4-21.6-15.6c-8.8-4.2-19.6-6.3-32.4-6.3c-12.8,0-23.7,2-32.7,6c-9,4-16.3,9.1-21.9,15.3
		c-5.6,6.2-9.7,13-12.3,20.4c-2.6,7.4-3.9,14.7-3.9,21.9c0,8.8,1.6,17.6,4.8,26.4c3.2,8.8,8.2,17,15,24.6
		c6.8,7.6,15.7,14.4,26.7,20.4c11,6,24.1,10.8,39.3,14.4c16.8-10,30.2-21.7,40.2-35.1C323.1,294.2,328.2,276.7,328.2,255.1z"/>
</g>
</svg>
