<?xml version="1.0" encoding="utf-8"?>
<!-- Generator: Adobe Illustrator 23.0.3, SVG Export Plug-In . SVG Version: 6.00 Build 0)  -->
<svg version="1.1" id="Layer_1" xmlns="http://www.w3.org/2000/svg" xmlns:xlink="http://www.w3.org/1999/xlink" x="0px" y="0px"
	 viewBox="0 0 515.9 728.5" style="enable-background:new 0 0 515.9 728.5;" xml:space="preserve">
<style type="text/css">
	.st0{fill:#504039;}
</style>
<g>
	<path class="st0" d="M123,401.8c0-40.4,5.6-76.1,16.8-107.1c11.2-31,27.1-57.1,47.7-78.3c20.6-21.2,45.6-37.3,75-48.3
		c29.4-11,62.5-16.7,99.3-17.1l4.2,46.8c-23.6,0.4-45.1,3-64.5,7.8c-19.4,4.8-36.7,12.4-51.9,22.8c-15.2,10.4-28,23.9-38.4,40.5
		c-10.4,16.6-18.2,37.1-23.4,61.5c10.4-4.8,22.1-8.8,35.1-12c13-3.2,26.5-4.8,40.5-4.8c23.6,0,43.6,3.6,60,10.8
		c16.4,7.2,29.8,16.7,40.2,28.5c10.4,11.8,17.9,25.4,22.5,40.8c4.6,15.4,6.9,31.5,6.9,48.3c0,15.2-2.6,30.8-7.8,46.8
		c-5.2,16-13.1,30.6-23.7,43.8c-10.6,13.2-24.1,24-40.5,32.4c-16.4,8.4-35.8,12.6-58.2,12.6c-45.6,0-80.3-15.6-104.1-46.8
		C134.9,499.6,123,456.6,123,401.8z M257.4,359.2c-14,0-27,1.3-39,3.9c-12,2.6-24,6.5-36,11.7c-0.4,4.4-0.7,8.9-0.9,13.5
		c-0.2,4.6-0.3,9.1-0.3,13.5c0,17.6,1.2,34.2,3.6,49.8c2.4,15.6,6.7,29.3,12.9,41.1c6.2,11.8,14.5,21.2,24.9,28.2
		c10.4,7,23.6,10.5,39.6,10.5c13.2,0,24.4-2.8,33.6-8.4c9.2-5.6,16.8-12.8,22.8-21.6c6-8.8,10.3-18.3,12.9-28.5
		c2.6-10.2,3.9-20.1,3.9-29.7c0-27.2-6.5-48-19.5-62.4C302.9,366.4,283.4,359.2,257.4,359.2z"/>
</g>
</svg>
